<svg width="700" height="700" viewBox="0 0 700 700" fill="none" xmlns="http://www.w3.org/2000/svg">
<path d="M700 0H0V700H700V0Z" fill="#F7DF1E"/>
<path d="M402.846 116.758C402.846 104.381 360.417 100 341.601 100C186.599 100 100 200.359 100 358.045C100 503.431 184.334 600 341.601 600C495.043 600 599.298 504.067 599.298 402.98C599.298 334.724 520.809 267.246 454.502 267.246C400.736 267.246 365.012 296.593 365.012 318.242C365.012 354.867 407.26 352.706 407.26 363.265C407.26 379.43 355.934 394.486 355.934 409.354C355.934 431.92 432.155 394.616 432.155 363.265C432.155 331.462 393.993 338.224 393.993 318.242C393.993 298.071 429.444 290.309 454.502 290.309C516.595 290.309 558.689 366.199 558.689 402.98C558.689 493.039 471.96 564.73 341.601 564.73C205.3 564.73 130.029 465.016 130.029 358.045C130.029 226.506 209.411 131.074 341.601 131.074C363.07 131.074 402.846 130.376 402.846 116.758Z" fill="black"/>
<path d="M305.401 419.602C357.112 413.159 354.331 332.266 343.74 291.525C340.785 280.156 334.976 280.639 331.689 281.271C324.239 283.545 322.56 288.683 322.925 291.525C328.95 329.582 332.462 403.116 298.28 401.6C264.099 400.084 271.987 329.592 280.204 294.536C280.204 289.956 278.232 280.892 270.343 281.271C262.455 281.65 258.657 290.272 257.745 294.536C256.101 311.116 240.763 427.655 305.401 419.602Z" fill="black"/>
</svg>
