<svg width="500" height="500" viewBox="0 0 500 500" fill="none" xmlns="http://www.w3.org/2000/svg">
<circle cx="250" cy="250" r="250" fill="#F7DF1E"/>
<path d="M287.747 83.3985C287.747 74.5578 257.441 71.4285 244.001 71.4285C133.285 71.4285 71.4285 143.114 71.4285 255.746C71.4285 359.594 131.667 428.571 244.001 428.571C353.602 428.571 428.07 360.048 428.07 287.843C428.07 239.089 372.006 190.89 324.644 190.89C286.24 190.89 260.723 211.852 260.723 227.316C260.723 253.476 290.9 251.933 290.9 259.475C290.9 271.021 254.239 281.776 254.239 292.396C254.239 308.514 308.682 281.869 308.682 259.475C308.682 236.759 281.424 241.589 281.424 227.316C281.424 212.908 306.746 207.364 324.644 207.364C368.996 207.364 399.064 261.571 399.064 287.843C399.064 352.171 337.114 403.379 244.001 403.379C146.643 403.379 92.8778 332.154 92.8778 255.746C92.8778 161.79 149.579 93.6243 244.001 93.6243C259.336 93.6243 287.747 93.1257 287.747 83.3985Z" fill="black"/>
<path d="M218.144 299.716C255.08 295.114 253.094 237.333 245.529 208.232C243.418 200.111 239.269 200.456 236.921 200.908C231.599 202.532 230.4 206.202 230.661 208.232C234.964 235.416 237.473 287.94 213.057 286.857C188.642 285.774 194.276 235.423 200.146 210.383C200.146 207.111 198.737 200.637 193.102 200.908C187.468 201.179 184.755 207.337 184.104 210.383C182.929 222.226 171.974 305.468 218.144 299.716Z" fill="black"/>
</svg>
